<?xml version="1.0" encoding="UTF-8" standalone="no"?>
<!DOCTYPE svg PUBLIC "-//W3C//DTD SVG 20010904//EN"
"http://www.w3.org/TR/2001/REC-SVG-20010904/DTD/svg10.dtd">
<!-- Created with Inkscape (http://www.inkscape.org/) -->
<svg
   width="96.000000pt"
   height="96.000000pt"
   xmlns="http://www.w3.org/2000/svg"
   xmlns:cc="http://web.resource.org/cc/"
   xmlns:inkscape="http://www.inkscape.org/namespaces/inkscape"
   xmlns:sodipodi="http://sodipodi.sourceforge.net/DTD/sodipodi-0.dtd"
   xmlns:rdf="http://www.w3.org/1999/02/22-rdf-syntax-ns#"
   xmlns:dc="http://purl.org/dc/elements/1.1/"
   xmlns:xlink="http://www.w3.org/1999/xlink"
   id="svg1"
   sodipodi:version="0.32"
   inkscape:version="0.40"
   sodipodi:docbase="/usr/local/apps/Utils/WiFi/themes/WiFi"
   sodipodi:docname="2.svg">
  <defs
     id="defs3">
    <linearGradient
       id="linearGradient3567">
      <stop
         style="stop-color:#000000;stop-opacity:1.0000000;"
         offset="0.0000000"
         id="stop3568" />
      <stop
         style="stop-color:#404040;stop-opacity:1.0000000;"
         offset="0.12175634"
         id="stop3571" />
      <stop
         style="stop-color:#545454;stop-opacity:1.0000000;"
         offset="0.38087881"
         id="stop3572" />
      <stop
         style="stop-color:#000000;stop-opacity:1.0000000;"
         offset="1.0000000"
         id="stop3569" />
    </linearGradient>
  </defs>
  <sodipodi:namedview
     id="base"
     pagecolor="#ffffff"
     bordercolor="#666666"
     borderopacity="1.0"
     inkscape:pageopacity="0.0"
     inkscape:pageshadow="2"
     inkscape:zoom="4.3678575"
     inkscape:cx="48.000001"
     inkscape:cy="52.878683"
     inkscape:current-layer="svg1"
     inkscape:window-width="813"
     inkscape:window-height="665"
     inkscape:window-x="139"
     inkscape:window-y="141"
     showgrid="true"
     inkscape:grid-bbox="true"
     gridtolerance="1.0000000pt"
     gridspacingy="8.0000000pt"
     gridspacingx="2.0000000pt"
     gridoriginy="0.0000000pt"
     gridoriginx="0.0000000pt" />
  <metadata
     id="metadata4">
    <rdf:RDF
       id="RDF5">
      <cc:Work
         rdf:about=""
         id="Work6">
        <dc:format
           id="format7">image/svg+xml</dc:format>
        <dc:type
           id="type9"
           rdf:resource="http://purl.org/dc/dcmitype/StillImage" />
      </cc:Work>
    </rdf:RDF>
  </metadata>
  <g
     inkscape:label="Layer 1"
     inkscape:groupmode="layer"
     id="layer1" />
  <path
     d="M 36.516838,59.948499 L 32.496096,59.948499 C 29.281576,59.948499 28.125222,59.858224 26.729180,59.498282 C 20.821930,57.975212 16.534719,53.432013 15.324934,47.413086 C 15.006440,45.828503 14.955801,44.406624 15.030112,39.134936 C 15.116864,32.980553 15.140277,32.708245 15.737840,30.903652 C 16.077745,29.877167 16.748233,28.370802 17.227816,27.556175 C 18.339061,25.668585 21.145762,22.967303 23.054103,21.948716 C 25.732039,20.519351 26.935388,20.256605 31.409727,20.124305 L 35.459505,20.004561 L 84.791675,20.000000 L 88.705460,20.109213 C 92.136746,20.204960 92.851204,20.294834 94.500779,20.838222 C 98.299251,22.089478 101.67138,25.021194 103.39493,28.570733 C 104.90379,31.678170 105.00000,32.363118 105.00000,39.997419 C 105.00000,46.134696 104.95466,46.941818 104.52137,48.518070 C 103.12753,53.588657 99.414441,57.513464 94.354866,59.264249 C 93.059706,59.712415 92.223864,59.799710 88.340563,59.892375 L 83.830465,60.000000 L 36.516838,59.948499 z M 92.318580,56.659789 C 96.693781,55.746749 100.29444,52.329366 101.61844,47.833298 C 102.16203,45.987383 102.16504,34.033222 101.62239,32.170777 C 100.44614,28.133749 97.457771,25.022770 93.429196,23.641437 C 92.261723,23.241127 91.313947,23.205018 81.974111,23.205018 L 71.791809,23.205018 L 70.200265,23.847306 C 66.773288,25.230303 64.190941,27.843842 62.916107,31.219446 C 62.349378,32.720077 62.325676,33.006540 62.179746,40.118684 C 62.011590,48.314219 61.970462,48.567638 60.272048,51.873226 C 59.648332,53.087151 58.793986,54.257549 57.760209,55.314282 L 56.193575,56.915703 L 73.642916,56.915703 C 85.404630,56.915703 91.491979,56.832288 92.318580,56.659789 z M 69.004941,49.158600 C 68.943856,48.998130 68.921092,44.510176 68.954348,39.185369 L 69.014818,29.503902 L 77.577208,29.503902 L 86.139598,29.503902 L 86.205546,31.895143 L 86.271498,34.286386 L 80.362294,34.286386 L 74.453093,34.286386 L 74.453093,36.381634 L 74.453093,38.476879 L 79.717806,38.539584 L 84.982518,38.602287 L 85.048466,40.993529 L 85.114418,43.384771 L 79.783754,43.384771 L 74.453093,43.384771 L 74.453093,46.417567 L 74.453093,49.450361 L 71.784547,49.450361 C 69.862466,49.450361 69.084934,49.368747 69.004941,49.158600 z M 89.263713,42.218312 L 89.263713,34.986261 L 91.809288,34.986261 L 94.354866,34.986261 L 94.354866,42.218312 L 94.354866,49.450361 L 91.809288,49.450361 L 89.263713,49.450361 L 89.263713,42.218312 z M 89.890213,32.882986 C 89.005906,32.181751 88.695753,31.025665 89.118376,30.005984 C 89.923081,28.064443 93.370515,27.806033 94.426472,29.608106 C 95.148091,30.839621 94.777668,32.420946 93.627053,33.020777 C 92.654637,33.527709 90.608092,33.452245 89.890213,32.882986 z M 32.847201,47.700672 C 33.065058,46.802496 33.580099,44.154775 33.991731,41.816840 C 34.403368,39.478906 34.778541,37.604744 34.825449,37.652034 C 34.872359,37.699325 35.064819,38.772328 35.253135,40.036486 C 35.441455,41.300646 35.930088,43.909678 36.338988,45.834337 L 37.082444,49.333715 L 39.550629,49.399746 C 41.750900,49.458611 42.032403,49.420626 42.143990,49.049808 C 42.362736,48.322881 46.683180,30.012397 46.683180,29.812259 C 46.683180,29.706817 45.452292,29.620547 43.947874,29.620547 L 41.212568,29.620547 L 40.704788,32.944957 C 40.425508,34.773382 40.084342,37.161709 39.946643,38.252349 C 39.808942,39.342988 39.639696,40.392803 39.570538,40.585268 C 39.501381,40.777734 39.264928,39.780410 39.045085,38.368995 C 38.825240,36.957578 38.352971,34.411780 37.995592,32.711665 L 37.345818,29.620547 L 34.865692,29.620547 C 32.486216,29.620547 32.380329,29.641849 32.256542,30.145454 C 31.944346,31.415576 31.166473,35.278282 30.835383,37.202536 C 30.636687,38.357330 30.409879,39.669598 30.331363,40.118684 C 30.225695,40.723085 29.988311,39.601873 29.417602,35.802783 C 28.993549,32.979951 28.589424,30.434152 28.519548,30.145454 C 28.396543,29.637237 28.303848,29.620547 25.604325,29.620547 C 23.057993,29.620547 22.826440,29.655958 22.934808,30.028807 C 23.000071,30.253351 24.068948,34.718403 25.310089,39.951143 L 27.566710,49.465216 L 30.008904,49.399466 L 32.451098,49.333715 L 32.847201,47.700672 z M 54.265395,42.159989 L 54.326593,34.986261 L 51.777674,34.986261 L 49.228755,34.986261 L 49.228755,42.226203 L 49.228755,49.466147 L 51.716476,49.399931 L 54.204198,49.333715 L 54.265395,42.159989 z M 53.555198,32.896920 C 54.578636,32.267832 54.983234,30.921404 54.457070,29.895665 C 54.250041,29.492072 53.775177,29.002613 53.401816,28.807975 C 52.051088,28.103822 49.805095,28.534913 49.235614,29.607625 C 48.924394,30.193861 48.930613,31.625163 49.246976,32.221080 C 49.825530,33.310882 52.260352,33.692837 53.555198,32.896920 z "
     id="path1067"
     sodipodi:nodetypes="cccccccccccccccccccccccccccccccccccccccccccccccccccccccccccccccccccccccccccccccccccccccccccccccccccccccccccccccccc"
     style="fill-opacity:1.0000000;fill:#000000;" />
  <rect
     style="fill:#698aa7;fill-opacity:1.0000000;fill-rule:evenodd;stroke:#000000;stroke-width:2.4999988;stroke-linecap:round;stroke-linejoin:round;stroke-miterlimit:4.0000000;stroke-dashoffset:0.0000000;stroke-opacity:1.0000000;"
     id="rect1068"
     width="17.798561"
     height="17.780041"
     x="10.701900"
     y="84.593208"
     rx="3.2230966"
     ry="3.5192533"
     transform="translate(0.548100,-3.623248)" />
  <rect
     style="fill:#698aa7;fill-opacity:1.0000000;fill-rule:evenodd;stroke:#000000;stroke-width:2.4999988;stroke-linecap:round;stroke-linejoin:round;stroke-miterlimit:4.0000000;stroke-dashoffset:0.0000000;stroke-opacity:1.0000000;"
     id="rect2311"
     width="17.798561"
     height="17.780041"
     x="37.916668"
     y="80.969963"
     rx="3.2230966"
     ry="3.5192533" />
  <rect
     style="fill:none;fill-opacity:0.0000000;fill-rule:evenodd;stroke:#000000;stroke-width:2.4999988;stroke-linecap:round;stroke-linejoin:round;stroke-miterlimit:4.0000000;stroke-dashoffset:0.0000000;stroke-opacity:1.0000000"
     id="rect2312"
     width="17.798561"
     height="17.780041"
     x="64.583336"
     y="80.969963"
     rx="3.2230966"
     ry="3.5192533" />
  <rect
     style="fill:none;fill-opacity:0.0000000;fill-rule:evenodd;stroke:#000000;stroke-width:2.4999988;stroke-linecap:round;stroke-linejoin:round;stroke-miterlimit:4.0000000;stroke-dashoffset:0.0000000;stroke-opacity:1.0000000"
     id="rect2934"
     width="17.798561"
     height="17.780041"
     x="91.250008"
     y="80.969963"
     rx="3.2230966"
     ry="3.5192533" />
</svg>
