<?xml version="1.0" encoding="UTF-8" standalone="no"?>
<!DOCTYPE svg PUBLIC "-//W3C//DTD SVG 20010904//EN"
"http://www.w3.org/TR/2001/REC-SVG-20010904/DTD/svg10.dtd">
<!-- Created with Inkscape (http://www.inkscape.org/) -->
<svg
   width="96.000000pt"
   height="96.000000pt"
   id="svg1"
   sodipodi:version="0.32"
   inkscape:version="0.40"
   sodipodi:docbase="/usr/local/apps/Utils/WiFi/themes/WiFi"
   sodipodi:docname="No.svg"
   xmlns="http://www.w3.org/2000/svg"
   xmlns:cc="http://web.resource.org/cc/"
   xmlns:inkscape="http://www.inkscape.org/namespaces/inkscape"
   xmlns:sodipodi="http://sodipodi.sourceforge.net/DTD/sodipodi-0.dtd"
   xmlns:rdf="http://www.w3.org/1999/02/22-rdf-syntax-ns#"
   xmlns:dc="http://purl.org/dc/elements/1.1/"
   xmlns:xlink="http://www.w3.org/1999/xlink">
  <defs
     id="defs3" />
  <sodipodi:namedview
     id="base"
     pagecolor="#ffffff"
     bordercolor="#666666"
     borderopacity="1.0"
     inkscape:pageopacity="0.0"
     inkscape:pageshadow="2"
     inkscape:zoom="6.1770833"
     inkscape:cx="50.347406"
     inkscape:cy="69.169477"
     inkscape:current-layer="svg1"
     inkscape:window-width="813"
     inkscape:window-height="665"
     inkscape:window-x="50"
     inkscape:window-y="181"
     showgrid="true"
     inkscape:grid-bbox="true"
     gridtolerance="1.0000000pt"
     gridspacingy="8.0000000pt"
     gridspacingx="2.0000000pt"
     gridoriginy="0.0000000pt"
     gridoriginx="0.0000000pt"
     showguides="true"
     inkscape:guide-bbox="true" />
  <metadata
     id="metadata4">
    <rdf:RDF
       id="RDF5">
      <cc:Work
         rdf:about=""
         id="Work6">
        <dc:format
           id="format7">image/svg+xml</dc:format>
        <dc:type
           id="type9"
           rdf:resource="http://purl.org/dc/dcmitype/StillImage" />
      </cc:Work>
    </rdf:RDF>
  </metadata>
  <g
     inkscape:label="Layer 1"
     inkscape:groupmode="layer"
     id="layer1" />
  <path
     d="M 35.468750 20.000000 L 31.406250 20.125000 C 26.931911 20.257300 25.740435 20.508136 23.062500 21.937500 C 21.154159 22.956087 18.329995 25.674910 17.218750 27.562500 C 16.739167 28.377127 16.089905 29.879765 15.750000 30.906250 C 15.152437 32.710843 15.118002 32.970616 15.031250 39.125000 C 14.956939 44.396688 14.994006 45.821667 15.312500 47.406250 C 16.522285 53.425177 20.811501 57.976929 26.718750 59.500000 C 28.114792 59.859942 29.285478 59.937501 32.500000 59.937500 L 36.531250 59.937500 L 83.843750 60.000000 L 88.343750 59.906250 C 92.227051 59.813585 93.048590 59.698167 94.343750 59.250000 C 99.403325 57.499215 103.13741 53.601837 104.53125 48.531250 C 104.96454 46.954998 105.00000 46.137279 105.00000 40.000000 C 105.00000 32.365699 104.91511 31.669938 103.40625 28.562500 C 101.68270 25.012961 98.298473 22.095005 94.500000 20.843750 C 92.850425 20.300362 92.150036 20.189497 88.718750 20.093750 L 84.781250 20.000000 L 35.468750 20.000000 z M 71.781250 23.218750 L 81.968750 23.218750 C 91.308586 23.218750 92.270024 23.255939 93.437500 23.656250 C 97.466075 25.037583 100.44875 28.119223 101.62500 32.156250 C 102.16765 34.018695 102.16859 45.997835 101.62500 47.843750 C 100.30100 52.339818 96.687700 55.743209 92.312500 56.656250 C 91.485899 56.828749 85.417966 56.906250 73.656250 56.906250 L 56.187500 56.906250 L 57.750000 55.312500 C 58.783777 54.255767 59.657533 53.088925 60.281250 51.875000 C 61.979664 48.569412 62.019345 48.320536 62.187500 40.125000 C 62.333430 33.012856 62.339521 32.719381 62.906250 31.218750 C 64.181084 27.843146 66.760524 25.226748 70.187500 23.843750 L 71.781250 23.218750 z M 91.687500 28.406250 C 90.593059 28.488286 89.527352 29.029230 89.125000 30.000000 C 88.702377 31.019681 88.990693 32.173767 89.875000 32.875000 C 90.592879 33.444259 92.652585 33.538180 93.625000 33.031250 C 94.775615 32.431419 95.159115 30.825264 94.437500 29.593750 C 93.909521 28.692713 92.781941 28.324214 91.687500 28.406250 z M 69.000000 29.500000 L 68.968750 39.187500 C 68.935494 44.512307 68.938912 48.995780 69.000000 49.156250 C 69.079993 49.366397 69.859170 49.437502 71.781250 49.437500 L 74.437500 49.437500 L 74.437500 46.406250 L 74.437500 43.375000 L 79.781250 43.375000 L 85.125000 43.375000 L 85.062500 41.000000 L 84.968750 38.593750 L 79.718750 38.531250 L 74.437500 38.468750 L 74.437500 36.375000 L 74.437500 34.281250 L 80.375000 34.281250 L 86.281250 34.281250 L 86.218750 31.906250 L 86.125000 29.500000 L 77.562500 29.500000 L 69.000000 29.500000 z M 20.093750 30.000000 L 25.750000 30.000000 L 32.875000 43.468750 L 32.875000 30.000000 L 37.656250 30.000000 L 37.656250 49.625000 L 32.031250 49.625000 L 24.875000 36.156250 L 24.875000 49.625000 L 20.093750 49.625000 L 20.093750 30.000000 z M 49.437500 34.531250 C 51.969245 34.531266 53.924551 35.227142 55.343750 36.593750 C 56.771679 37.960384 57.499983 39.863389 57.500000 42.281250 C 57.499983 44.699126 56.771679 46.570881 55.343750 47.937500 C 53.924552 49.304123 51.969244 50.000000 49.437500 50.000000 C 46.896979 49.999999 44.905451 49.304123 43.468750 47.937500 C 42.040804 46.570881 41.312499 44.699125 41.312500 42.281250 C 41.312500 39.863390 42.040803 37.960384 43.468750 36.593750 C 44.905452 35.227142 46.896977 34.531265 49.437500 34.531250 z M 89.250000 35.000000 L 89.250000 42.218750 L 89.250000 49.437500 L 91.812500 49.437500 L 94.343750 49.437500 L 94.343750 42.218750 L 94.343750 35.000000 L 91.812500 35.000000 L 89.250000 35.000000 z M 49.437500 37.906250 C 48.395005 37.906262 47.583148 38.277867 47.031250 39.031250 C 46.488097 39.775893 46.218744 40.870834 46.218750 42.281250 C 46.218745 43.691681 46.488099 44.777860 47.031250 45.531250 C 47.583146 46.275888 48.395004 46.625003 49.437500 46.625000 C 50.462458 46.625004 51.238094 46.275887 51.781250 45.531250 C 52.324382 44.777861 52.593738 43.691680 52.593750 42.281250 C 52.593738 40.870835 52.324383 39.775894 51.781250 39.031250 C 51.238094 38.277866 50.462456 37.906262 49.437500 37.906250 z "
     id="path1067" />
  <rect
     style="fill:none;fill-opacity:1.0000000;fill-rule:evenodd;stroke:#000000;stroke-width:2.7500000;stroke-linecap:round;stroke-linejoin:round;stroke-miterlimit:4.0000000;stroke-dashoffset:0.0000000;stroke-opacity:1.0000000;stroke-dasharray:none;"
     id="rect1068"
     width="17.798561"
     height="17.780041"
     x="10.701900"
     y="84.593208"
     rx="3.2230966"
     ry="3.5192533"
     transform="translate(0.548100,-3.623248)" />
  <rect
     style="fill:none;fill-opacity:1.0000000;fill-rule:evenodd;stroke:#000000;stroke-width:2.7500000;stroke-linecap:round;stroke-linejoin:round;stroke-miterlimit:4.0000000;stroke-dashoffset:0.0000000;stroke-opacity:1.0000000;stroke-dasharray:none;"
     id="rect2311"
     width="17.798561"
     height="17.780041"
     x="37.916668"
     y="80.969963"
     rx="3.2230966"
     ry="3.5192533" />
  <rect
     style="fill:none;fill-opacity:0.0000000;fill-rule:evenodd;stroke:#000000;stroke-width:2.7500000;stroke-linecap:round;stroke-linejoin:round;stroke-miterlimit:4.0000000;stroke-dashoffset:0.0000000;stroke-opacity:1.0000000;stroke-dasharray:none;"
     id="rect2312"
     width="17.798561"
     height="17.780041"
     x="64.583336"
     y="80.969963"
     rx="3.2230966"
     ry="3.5192533" />
  <rect
     style="fill:none;fill-opacity:0.0000000;fill-rule:evenodd;stroke:#000000;stroke-width:2.7500000;stroke-linecap:round;stroke-linejoin:round;stroke-miterlimit:4.0000000;stroke-dashoffset:0.0000000;stroke-opacity:1.0000000;stroke-dasharray:none;"
     id="rect2934"
     width="17.798561"
     height="17.780041"
     x="91.250008"
     y="80.969963"
     rx="3.2230966"
     ry="3.5192533" />
</svg>
